<?xml version="1.0" encoding="iso-8859-1"?>
<!-- Generator: Adobe Illustrator 19.0.0, SVG Export Plug-In . SVG Version: 6.00 Build 0)  -->
<svg version="1.1" id="Capa_1" xmlns="http://www.w3.org/2000/svg" xmlns:xlink="http://www.w3.org/1999/xlink" x="0px" y="0px"
	 viewBox="0 0 480 480" style="enable-background:new 0 0 480 480;" xml:space="preserve">
<path style="fill:#78B9EB;" d="M408,480H72c-8.837,0-16-7.163-16-16V16c0-8.837,7.163-16,16-16h264l88,88v376
	C424,472.837,416.837,480,408,480z"/>
<path style="fill:#679FC9;" d="M336,0v72c0,8.837,7.163,16,16,16h72L336,0z"/>
<g>
	<path style="fill:#FFFFFF;" d="M104,48h16v16h-16V48z"/>
	<path style="fill:#FFFFFF;" d="M136,48h160v16H136V48z"/>
	<path style="fill:#FFFFFF;" d="M104,80h192v16H104V80z"/>
</g>
<path style="fill:#FFEB99;" d="M112,128h256c4.418,0,8,3.582,8,8v160c0,4.418-3.582,8-8,8H112c-4.418,0-8-3.582-8-8V136
	C104,131.582,107.582,128,112,128z"/>
<path style="fill:#FFDA44;" d="M112,336h88c4.418,0,8,3.582,8,8v80c0,4.418-3.582,8-8,8h-88c-4.418,0-8-3.582-8-8v-80
	C104,339.582,107.582,336,112,336z"/>
<g>
	<path style="fill:#FFFFFF;" d="M224,336h16v16h-16V336z"/>
	<path style="fill:#FFFFFF;" d="M256,336h120v16H256V336z"/>
	<path style="fill:#FFFFFF;" d="M224,368h152v16H224V368z"/>
	<path style="fill:#FFFFFF;" d="M224,400h152v16H224V400z"/>
</g>
<g>
</g>
<g>
</g>
<g>
</g>
<g>
</g>
<g>
</g>
<g>
</g>
<g>
</g>
<g>
</g>
<g>
</g>
<g>
</g>
<g>
</g>
<g>
</g>
<g>
</g>
<g>
</g>
<g>
</g>
</svg>
